<svg width="32" height="32" viewBox="0 0 32 32" fill="none" xmlns="http://www.w3.org/2000/svg">
<path d="M24.8309 10.2449C24.6178 10.0378 24.3187 9.94366 24.0261 9.99179C23.7329 10.0397 23.4797 10.2238 23.3437 10.4879C22.876 11.3966 22.2819 12.2317 21.5829 12.9699C21.6525 12.4366 21.6876 11.9002 21.6876 11.3623C21.6876 10.3302 21.5493 9.26816 21.2764 8.20523C20.379 4.71391 18.0259 1.76135 14.8205 0.104664C14.5415 -0.039524 14.209 -0.0344615 13.9344 0.118164C13.6599 0.270851 13.48 0.550789 13.4554 0.863914C13.2055 4.03666 11.5713 6.92316 8.96923 8.78516C8.9348 8.80998 8.90061 8.8351 8.86642 8.8601C8.79561 8.91191 8.72886 8.96091 8.66648 9.00204C8.65673 9.00854 8.64705 9.01516 8.63755 9.02198C7.00105 10.1937 5.65073 11.7555 4.73242 13.5392C3.7993 15.3535 3.32617 17.3005 3.32617 19.3258C3.32617 20.3575 3.46448 21.4196 3.7373 22.4827C5.17698 28.0863 10.2197 31.9999 16.0004 31.9999C22.9886 31.9999 28.6738 26.3143 28.6738 19.3258C28.6738 15.8795 27.3091 12.6545 24.8309 10.2449V10.2449Z" fill="#FF5555"/>
<circle cx="15.0588" cy="18.8235" r="3.76471" fill="white"/>
</svg>
